<?xml version="1.0" standalone="no"?><!DOCTYPE svg PUBLIC "-//W3C//DTD SVG 1.1//EN" "http://www.w3.org/Graphics/SVG/1.1/DTD/svg11.dtd"><svg t="1505051241127" class="icon" style="" viewBox="0 0 1024 1024" version="1.1" xmlns="http://www.w3.org/2000/svg" p-id="12989" xmlns:xlink="http://www.w3.org/1999/xlink" width="32" height="32"><defs><style type="text/css"></style></defs><path d="M529.216 15.424c-201.28 0-364.608 166.336-364.608 371.968 0 78.592 24.064 151.68 64.96 211.712 1.984 3.456 3.776 6.848 6.208 9.92l248.32 319.04c12.416 16.704 28.8 24.704 45.184 24.704s32.704-8 45.12-24.704l248.384-319.04c2.304-3.072 4.16-6.4 5.952-9.536 41.024-60.224 65.152-133.184 65.152-212.032C893.76 181.76 730.624 15.424 529.216 15.424z m239.616 541.44l-1.856 2.816-1.6 2.88-1.216 2.048L529.216 866.56 294.272 564.608l-1.472-2.56-1.6-2.944-1.728-2.304c-34.048-49.92-51.968-108.672-51.968-169.408 0-164.288 130.752-297.6 291.648-297.6S820.8 223.104 820.8 387.392c0 60.672-17.92 119.552-51.968 169.472zM529.216 238.592c-80.576 0-145.856 66.688-145.856 148.864 0 82.048 65.28 148.8 145.856 148.8s145.856-66.752 145.856-148.8c0-82.176-65.344-148.864-145.856-148.864z m0 223.296c-40.192 0-72.96-33.344-72.96-74.432 0-41.152 32.704-74.368 72.96-74.368s72.96 33.216 72.96 74.368c-0.064 41.024-32.768 74.432-72.96 74.432z m195.52 406.976" fill="#333333" p-id="12990"></path></svg>