<?xml version="1.0" standalone="no"?><!DOCTYPE svg PUBLIC "-//W3C//DTD SVG 1.1//EN" "http://www.w3.org/Graphics/SVG/1.1/DTD/svg11.dtd"><svg class="icon" width="200px" height="200.00px" viewBox="0 0 1024 1024" version="1.1" xmlns="http://www.w3.org/2000/svg"><path fill="#333333" d="M729.088 732.16q12.288 0 20.992 7.68t13.824 15.872q6.144 11.264 10.24 23.552-17.408 16.384-39.936 27.648-19.456 11.264-48.128 19.456t-65.536 8.192-73.728-10.752-66.048-35.84-47.104-66.56-17.92-103.936l0-246.784-167.936 0q3.072-18.432 9.216-36.864t16.896-33.28 25.6-24.064 34.304-9.216l81.92 0 0-53.248q0-13.312-1.024-24.576t-5.12-18.944-12.8-11.776-24.064-4.096q0-13.312 9.216-28.672t25.088-28.16 37.888-20.992 47.616-8.192q37.888 0 64 19.968t26.112 68.096l0 110.592 191.488 0q-8.192 33.792-17.92 53.76t-20.992 31.232-23.04 14.848-22.016 3.584l-107.52 0 0 243.712q0 38.912 7.68 64t19.968 39.424 26.624 19.968 27.648 5.632q16.384 0 25.088-1.536t14.336-4.096 10.752-4.096 14.336-1.536z" /></svg>