<?xml version="1.0" standalone="no"?><!DOCTYPE svg PUBLIC "-//W3C//DTD SVG 1.1//EN" "http://www.w3.org/Graphics/SVG/1.1/DTD/svg11.dtd"><svg t="1505051308588" class="icon" style="" viewBox="0 0 1024 1024" version="1.1" xmlns="http://www.w3.org/2000/svg" p-id="15132" xmlns:xlink="http://www.w3.org/1999/xlink" width="32" height="32"><defs><style type="text/css"></style></defs><path d="M868.962971 100.795661h-716.314339c-28.255531 0-51.16531 22.906709-51.16531 51.165309v716.314339c0 28.258601 22.909779 51.16531 51.16531 51.16531h716.314339c28.258601 0 51.16531-22.906709 51.16531-51.16531v-716.314339c0-28.258601-22.906709-51.16531-51.16531-51.165309z m-51.16531 716.314338h-613.983719v-613.983719h613.983719v613.983719z m-460.487789-255.826549h102.33062v102.33062c0 28.258601 22.909779 51.16531 51.16531 51.16531 28.258601 0 51.16531-22.906709 51.16531-51.16531v-102.33062h102.330619c28.258601 0 51.16531-22.906709 51.16531-51.16531s-22.906709-51.16531-51.16531-51.16531h-102.330619v-102.33062c0-28.258601-22.906709-51.16531-51.16531-51.16531-28.255531 0-51.16531 22.906709-51.16531 51.16531v102.33062h-102.33062c-28.255531 0-51.16531 22.906709-51.16531 51.16531s22.909779 51.16531 51.16531 51.16531z" p-id="15133"></path></svg>