<?xml version="1.0" standalone="no"?><!DOCTYPE svg PUBLIC "-//W3C//DTD SVG 1.1//EN" "http://www.w3.org/Graphics/SVG/1.1/DTD/svg11.dtd"><svg class="icon" width="200px" height="200.00px" viewBox="0 0 1024 1024" version="1.1" xmlns="http://www.w3.org/2000/svg"><path fill="#333333" d="M144.408381 447.073524c0-166.741333 135.265524-302.396952 301.543619-302.396953 166.253714 0 301.543619 135.655619 301.543619 302.396953 0 166.716952-135.265524 302.396952-301.543619 302.396952S144.408381 613.814857 144.408381 447.073524z m837.412571 449.584762l-198.290285-196.656762a421.302857 421.302857 0 0 0 83.968-252.903619C867.498667 213.991619 678.4 24.380952 445.952 24.380952S24.380952 213.967238 24.380952 447.073524s189.123048 422.716952 421.571048 422.716952a418.620952 418.620952 0 0 0 252.781714-84.650666l198.680381 197.071238c11.702857 11.629714 26.965333 17.408 42.203429 17.408 15.457524 0 30.939429-5.973333 42.666666-17.871238a60.318476 60.318476 0 0 0-0.463238-85.089524z" /></svg>